name C:\Users\u0113767\Documents\WORK_KULeuven\MRI_model_creation\SEMLS_2\gait1\gait1_EMG.mot
datacolumns 17
datarows 16
range 3.84500000 3.86000000
endheader
                time	        Voltage.LREF	        Voltage.LVAL	        Voltage.LBIF	        Voltage.LMEH	        Voltage.LTIA	        Voltage.LGAS	        Voltage.LSOL	        Voltage.LGLU	        Voltage.RREF	        Voltage.RVAL	        Voltage.RBIF	        Voltage.RMEH	        Voltage.RTIA	        Voltage.RGAS	        Voltage.RSOL	        Voltage.RGLU	
          3.84500000	          0.27089544	          0.94708128	          0.31691119	          0.55173588	          0.05629036	          0.29739190	          0.50364149	          0.12355363	          0.43635254	          0.29518543	          0.04251919	          0.14966340	          0.07657996	          0.46553014	          0.46875243	          0.21529861	
          3.84600000	          0.27177596	          0.95303086	          0.31489086	          0.54322276	          0.05848925	          0.30197522	          0.51262506	          0.12624349	          0.44041563	          0.29393327	          0.04301644	          0.14694211	          0.07780309	          0.45825019	          0.46930071	          0.21652014	
          3.84700000	          0.27273704	          0.95866399	          0.31294018	          0.53453054	          0.06069973	          0.30672927	          0.52186977	          0.12921964	          0.44411145	          0.29280324	          0.04346842	          0.14393782	          0.07903022	          0.45094028	          0.46991277	          0.21767402	
          3.84800000	          0.27376670	          0.96394202	          0.31105152	          0.52565052	          0.06292100	          0.31164808	          0.53136613	          0.13248416	          0.44743031	          0.29182976	          0.04386897	          0.14067505	          0.08025950	          0.44358903	          0.47058471	          0.21874301	
          3.84900000	          0.27485093	          0.96882189	          0.30921720	          0.51657823	          0.06515259	          0.31672181	          0.54110518	          0.13603892	          0.45035412	          0.29104533	          0.04421055	          0.13717331	          0.08149253	          0.43618540	          0.47131684	          0.21971241	
          3.85000000	          0.27597293	          0.97326358	          0.30742779	          0.50730827	          0.06739322	          0.32193678	          0.55107307	          0.13988550	          0.45285571	          0.29048340	          0.04448428	          0.13344795	          0.08273103	          0.42871873	          0.47210988	          0.22056715	
          3.85100000	          0.27711439	          0.97724314	          0.30567037	          0.49783229	          0.06964117	          0.32727736	          0.56124886	          0.14402494	          0.45490008	          0.29017863	          0.04468080	          0.12951247	          0.08397617	          0.42118219	          0.47296331	          0.22129041	
          3.85200000	          0.27825718	          0.98076257	          0.30392847	          0.48813935	          0.07189559	          0.33272821	          0.57160499	          0.14845756	          0.45644641	          0.29016541	          0.04479153	          0.12538028	          0.08523037	          0.41357616	          0.47387577	          0.22186489	
          3.85300000	          0.27938469	          0.98384603	          0.30218370	          0.47821697	          0.07415698	          0.33827488	          0.58210819	          0.15318292	          0.45745112	          0.29047841	          0.04480966	          0.12106510	          0.08649878	          0.40590842	          0.47484431	          0.22227443	
          3.85400000	          0.28048367	          0.98652750	          0.30041750	          0.46805398	          0.07642616	          0.34390327	          0.59272075	          0.15819982	          0.45787430	          0.29115325	          0.04473064	          0.11658023	          0.08778935	          0.39819295	          0.47586307	          0.22250396	
          3.85500000	          0.28154530	          0.98884492	          0.29861144	          0.45764836	          0.07870389	          0.34959849	          0.60340357	          0.16350610	          0.45768923	          0.29222388	          0.04455129	          0.11193713	          0.08911123	          0.39044722	          0.47692269	          0.22253813	
          3.85600000	          0.28256359	          0.99084127	          0.29674696	          0.44701418	          0.08099149	          0.35534320	          0.61412076	          0.16909805	          0.45688897	          0.29371863	          0.04426893	          0.10714496	          0.09047312	          0.38268819	          0.47800920	          0.22236087	
          3.85700000	          0.28353313	          0.99256282	          0.29480617	          0.43618010	          0.08329129	          0.36111739	          0.62484318	          0.17497014	          0.45548780	          0.29565822	          0.04388254	          0.10221409	          0.09188240	          0.37493103	          0.47910293	          0.22195678	
          3.85800000	          0.28444785	          0.99405255	          0.29277385	          0.42518314	          0.08560610	          0.36690068	          0.63554752	          0.18111523	          0.45352271	          0.29805606	          0.04339627	          0.09716263	          0.09334401	          0.36719080	          0.48017951	          0.22131189	
          3.85900000	          0.28529984	          0.99534433	          0.29063993	          0.41406327	          0.08793915	          0.37267385	          0.64621195	          0.18752477	          0.45105219	          0.30091948	          0.04282195	          0.09201907	          0.09485937	          0.35948413	          0.48121221	          0.22041402	
          3.86000000	          0.28607986	          0.99646273	          0.28840061	          0.40285888	          0.09029383	          0.37841792	          0.65681260	          0.19418813	          0.44814728	          0.30425087	          0.04217761	          0.08681823	          0.09642585	          0.35183026	          0.48217585	          0.21925523	
